<svg id="Layer_1" xmlns="http://www.w3.org/2000/svg" viewBox="0 0 850.4 475.7"><style>.st0{fill:#375463}.st1{fill:#0488d1}.st2{fill:#7b21a2}.st3{fill:#9c27b0}.st4{fill:#03a9f4}</style><path class="st0" d="M67.2 374.3c-9.9-8.6-25.8-9.4-46.7-1.1v-40.6H0v117.1h20.6v-58.3c16.1-7.1 27-8.1 31.5-3.1 2 2.2 3 5.6 3 10.1v51.3h20.6v-54.5c-.1-9.1-2.9-16.1-8.5-20.9zM160.7 391.2c-.7-3.1-1.7-5.8-2.9-8.1-1.3-2.3-3-4.6-5-6.7-2.2-2.2-4.7-3.9-7.6-5.2-2.7-1.2-5.9-2.1-9.6-2.8-3.6-.7-7.7-1-12.2-1-6.2 0-11.8.7-16.4 2-4.8 1.4-8.7 3.3-11.7 5.7-3.1 2.5-5.5 5.8-7.2 9.8-1.5 3.7-2.6 7.5-3.1 11.3-.5 3.6-.8 8-.8 13s.3 9.4.8 13c.5 3.8 1.6 7.6 3.1 11.3 1.7 4 4.1 7.4 7.2 9.8 3 2.4 6.9 4.3 11.7 5.7 4.6 1.3 10.1 2 16.4 2 6.3 0 11.8-.7 16.4-2 4.7-1.4 8.6-3.3 11.6-5.6 3.1-2.5 5.5-5.8 7.2-9.8 1.6-3.7 2.7-7.5 3.2-11.4.5-3.7.8-8 .8-13 0-3.5-.1-6.6-.4-9.4-.4-2.8-.9-5.7-1.5-8.6zm-56 18c0-5.3.2-9.6.7-12.7.4-2.7 1.3-5.2 2.6-7.3 1-1.7 2.5-2.9 4.6-3.6 2.5-.9 6.1-1.3 10.6-1.3s8.1.5 10.7 1.3c2.1.7 3.6 1.9 4.7 3.6 1.3 2.1 2.1 4.5 2.5 7.2.4 3.1.7 7.4.7 12.7s-.2 9.6-.7 12.7c-.4 2.7-1.2 5.1-2.5 7.2-1 1.7-2.6 2.9-4.7 3.6-2.6.9-6.2 1.3-10.7 1.3-4.5 0-8-.4-10.6-1.3-2.1-.7-3.6-1.9-4.6-3.6a20.4 20.4 0 0 1-2.6-7.3c-.4-2.9-.7-7.1-.7-12.5zM206.4 432.2c-6.9 1.6-10.6 1.6-11.8 0-.2-.3-1.3-2-1.3-7.9v-91.6h-20.6v92.2c0 8.9 1.7 15.3 5.1 19.5 3.6 4.4 9.1 6.7 16.5 6.8 3.9 0 9-.7 15.7-2.1l4.2-.9-3.3-17-4.5 1zM289.4 391.6c-.6-3.2-1.4-6-2.6-8.3-1.1-2.2-2.7-4.4-4.5-6.5-2-2.3-4.5-4.1-7.3-5.4-2.6-1.3-5.9-2.3-9.5-3-3.6-.7-7.7-1-12.2-1-6.2 0-11.8.7-16.4 2-4.8 1.4-8.7 3.3-11.7 5.7-3.1 2.5-5.5 5.8-7.2 9.8-1.5 3.7-2.6 7.5-3.1 11.3-.5 3.6-.8 8-.8 13 0 9.1 1.3 16.8 3.9 22.8 2.7 6.4 7 11.2 12.7 14.4 5.5 3.1 12.5 4.6 20.8 4.6 9.2 0 20.5-1.9 33.7-5.5l4-1.1-3.5-17.4-4.6 1.3c-21.9 6-36.7 6.5-42.1.3-2.1-2.4-3.5-6.1-4-11.1h55.6v-8.3c0-3.5-.1-6.7-.3-9.3-.1-2.6-.4-5.4-.9-8.3zm-42.8-6.8c1.9-.3 4.1-.4 6.7-.4 3.4 0 6.2.3 8.4.9 2 .6 3.5 1.3 4.6 2.1.9.7 1.5 1.8 2.1 3.3.7 2 1.2 4.1 1.4 6.3.1 1.4.2 3 .3 5h-35c0-.9.1-1.7.2-2.5.1-1.8.4-3.6.8-5.3.3-1.5.8-2.8 1.3-3.8a9.55 9.55 0 0 1 4.8-4.4c1.1-.5 2.6-.9 4.4-1.2zM343 367.3c-6.8 0-15.1 1.9-25.4 5.7l-.4-4.2h-17.4v107h20.6V448c7.9 2.1 14.9 3.2 20.7 3.2 10.8 0 18.9-3.7 24.2-11 5-6.9 7.4-17.1 7.4-31.1-.1-34.6-16.2-41.8-29.7-41.8zm9 41.8c0 6.4-.5 11.5-1.5 15.2-.8 3.1-2.2 5.4-4 6.8-4.2 3.3-13 2.6-26.2-.9V390c9.1-3.2 16-4.9 20.5-4.9 2.5 0 4.4.5 5.8 1.7 1.4 1.1 2.7 3.4 3.7 6.7 1.1 3.8 1.7 9 1.7 15.6zM434.8 427.6c-8.4 3.7-15.6 5.6-21.3 5.6-8.3 0-11.7-3.8-11.7-13.2v-51.3h-20.6v54.2c0 9.1 2.7 16.1 8.1 21 5.2 4.7 12.3 7.1 21 7.1 7.9 0 16.9-2.1 26.8-6.1l.7 4.8h17.5v-81h-20.6v58.9zM485.5 374.2l-.7-5.5h-17.6v81h20.6v-58.3c9.4-4.1 17.1-6.2 22.7-6.2 8.3 0 11.7 3.8 11.7 13.2v51.3h20.6v-54.2c0-9.1-2.7-16.1-8.1-21-10.3-9.1-27.2-9.6-49.2-.3zM613 430.8c-10.2 1.8-17.8 2.7-22.6 2.7-4 0-7.2-.4-9.7-1.3-2.1-.8-3.7-1.9-4.9-3.6-1.4-1.9-2.3-4.3-2.9-7.1-.7-3.2-1-7.3-1-12.2s.3-9.1 1-12.2c.6-2.8 1.6-5.2 2.9-7.1 1.2-1.7 2.8-2.9 4.9-3.6 2.4-.9 5.7-1.3 9.7-1.3 4.8 0 12.4.9 22.6 2.7l4.3.8 3.2-17.4-4.4-.8c-11-2-20.2-3-27.5-3-13.1 0-22.8 3.5-28.7 10.3-5.8 6.7-8.7 17.1-8.7 31.7 0 14.5 2.8 24.8 8.5 31.5 5.8 6.8 15.4 10.3 28.4 10.4 7.2 0 16.5-1 27.9-3.1l4.4-.8-3.2-17.2-4.2.6zM696.2 374.3c-10-8.6-25.8-9.4-46.7-1.1v-40.6h-20.6v117.1h20.6v-58.3c16.1-7.1 27-8.1 31.5-3.1 2 2.2 3 5.6 3 10.1v51.3h20.6v-54.5c-.1-9.1-2.9-16.1-8.4-20.9zM713.8 423.6h21.4v26.2h-21.4zM741.6 340.6h21.1v23.7h-21.1zM741.9 368.7h20.6v81h-20.6zM850 399.8c-.3-2.8-.7-5.7-1.4-8.6-.7-3.1-1.7-5.8-2.9-8.1-1.3-2.3-3-4.6-5-6.7-2.2-2.2-4.7-3.9-7.6-5.2-2.7-1.2-5.9-2.1-9.6-2.8-3.6-.7-7.7-1-12.2-1-6.2 0-11.8.7-16.4 2-4.8 1.4-8.7 3.3-11.7 5.7-3.1 2.5-5.5 5.8-7.2 9.8-1.5 3.7-2.6 7.5-3.1 11.3-.5 3.6-.8 8-.8 13s.3 9.4.8 13c.5 3.8 1.6 7.6 3.1 11.3 1.7 4 4.1 7.4 7.2 9.8 3 2.4 6.9 4.3 11.7 5.7 4.6 1.3 10.1 2 16.4 2 6.3 0 11.8-.7 16.4-2 4.7-1.4 8.6-3.3 11.6-5.7 3.1-2.5 5.5-5.8 7.2-9.8 1.6-3.7 2.7-7.5 3.2-11.4.5-3.7.8-8 .8-13-.1-3.3-.2-6.5-.5-9.3zm-57.3 9.4c0-5.3.2-9.6.7-12.7.4-2.7 1.3-5.2 2.6-7.3 1-1.7 2.5-2.9 4.6-3.6 2.5-.9 6.1-1.3 10.6-1.3s8.1.5 10.7 1.3c2.1.7 3.6 1.9 4.7 3.6 1.3 2.1 2.1 4.5 2.5 7.2.5 3.1.7 7.4.7 12.7s-.2 9.6-.7 12.7c-.4 2.7-1.2 5.1-2.5 7.2-1 1.7-2.6 2.9-4.7 3.6-2.6.9-6.2 1.3-10.7 1.3-4.5 0-8-.5-10.6-1.3-2.1-.7-3.6-1.9-4.6-3.6a20.4 20.4 0 0 1-2.6-7.3c-.5-2.9-.7-7.1-.7-12.5z"/><g><path class="st1" d="M472.8 109.5c10.8-2.6 21.8-3.8 32.8-3.6 1.8-10.4 2.5-20.9 2.2-31.4-10.5-.3-21 .4-31.4 2.2.1 11-1 22.1-3.6 32.8z"/><path class="st2" d="M377.6 204.6a129.9 129.9 0 0 1-32.8 3.6c-1.8 10.4-2.5 20.9-2.2 31.4 10.5.3 21-.4 31.4-2.2-.1-11 1-22 3.6-32.8z"/><path class="st3" d="M432.4 127c12.6-8.2 26.2-14.1 40.4-17.5 2.6-10.8 3.8-21.8 3.6-32.8-10.8 1.8-21.4 4.7-31.6 8.7-1 14.4-5.1 28.7-12.4 41.6z"/><path class="st4" d="M418 187.2c-12.6 8.2-26.2 14.1-40.4 17.5a129.9 129.9 0 0 0-3.6 32.8c10.8-1.8 21.4-4.7 31.6-8.7 1-14.5 5.1-28.7 12.4-41.6z"/><path d="M461.1 286.2c-1.7-1.4-3.3-2.8-4.8-4.4a66.19 66.19 0 0 1 20.2-107.4c24.3-10.6 53.6-6 73.4 13.8 1.5 1.5 3 3.2 4.4 4.8l22.3-22.3a97.53 97.53 0 0 0-79.8-33.1c-14.4.9-28.6 5-41.5 12.3a98.16 98.16 0 0 0-37.3 37.3 96.4 96.4 0 0 0-12.3 41.5 97.53 97.53 0 0 0 33.1 79.8l22.3-22.3z" fill="#4fc3f7"/><path class="st2" d="M468.8 35.7c4.7 13.3 7.2 27.1 7.5 41.1 10.4-1.8 20.9-2.5 31.4-2.2l-38.9-38.9z"/><path d="M389.3 28c1.7 1.4 3.3 2.8 4.8 4.4a66.19 66.19 0 0 1-20.2 107.4c-24.3 10.6-53.6 6-73.4-13.8-1.5-1.5-3-3.2-4.4-4.8l-22.3 22.3a97.53 97.53 0 0 0 79.8 33.1c14.4-.9 28.6-5 41.5-12.3a98.16 98.16 0 0 0 37.3-37.3 96.4 96.4 0 0 0 12.3-41.5 97.53 97.53 0 0 0-33.1-79.8L389.3 28z" fill="#ba68c8"/><path class="st1" d="M507.7 74.5c.3 10.5-.4 21-2.2 31.4 13.9.3 27.8 2.8 41.1 7.5l-38.9-38.9z"/><path class="st3" d="M411.6 5.6a97.53 97.53 0 0 1 33.1 79.8c10.3-4 20.9-6.9 31.6-8.7-.3-13.9-2.8-27.8-7.5-41.1l-30-30c-7.5-7.5-19.7-7.5-27.2 0z"/><path class="st2" d="M303.8 200.7l38.9 38.9c-.3-10.5.4-21 2.2-31.4-14-.3-27.9-2.8-41.1-7.5z"/><path class="st1" d="M381.6 278.5c-4.7-13.3-7.2-27.1-7.5-41.1-10.4 1.8-20.9 2.5-31.4 2.2l38.9 38.9z"/><path class="st4" d="M405.7 228.7c-10.3 4-20.9 6.9-31.6 8.7.3 13.9 2.8 27.8 7.5 41.1l30 30c7.5 7.5 19.7 7.5 27.3 0a97.26 97.26 0 0 1-33.2-79.8zM572.2 166c1.5 1.5 3 3.1 4.4 4.7 7.5-7.5 7.5-19.7 0-27.3l-30-30c-13.3-4.7-27.1-7.2-41.1-7.5-1.8 10.8-4.7 21.4-8.7 31.6 27.1-1.7 54.7 7.8 75.4 28.5z"/><path class="st3" d="M278.2 148.2c-1.5-1.5-3-3.1-4.4-4.7-7.5 7.5-7.5 19.7 0 27.3l30 30c13.3 4.7 27.1 7.2 41.1 7.5 1.8-10.8 4.7-21.4 8.7-31.6-27.1 1.6-54.7-7.8-75.4-28.5z"/><linearGradient id="SVGID_1_" gradientUnits="userSpaceOnUse" x1="607.91" y1="157.58" x2="737.2" y2="231.65" gradientTransform="rotate(-45 503.45 475.37)"><stop offset="0" stop-color="#9c27b0"/><stop offset="1" stop-color="#03a9f4"/></linearGradient><path d="M472.8 109.5c-14.1 3.4-27.8 9.2-40.4 17.5a98.16 98.16 0 0 1-37.3 37.3 96.4 96.4 0 0 1-41.5 12.3c-4 10.3-6.9 20.9-8.7 31.6 11 .2 22-1 32.8-3.6 14.1-3.4 27.8-9.2 40.4-17.5a98.16 98.16 0 0 1 37.3-37.3 96.4 96.4 0 0 1 41.5-12.3c4-10.3 6.9-20.9 8.7-31.6-11.1-.2-22.1 1-32.8 3.6z" fill="url(#SVGID_1_)"/></g></svg>