<?xml version="1.0" encoding="UTF-8"?>
<svg width="92px" height="108px" viewBox="0 0 92 108" version="1.1" xmlns="http://www.w3.org/2000/svg" xmlns:xlink="http://www.w3.org/1999/xlink">
    <!-- Generator: Sketch 52.5 (67469) - http://www.bohemiancoding.com/sketch -->
    <title>XMLID_92_ Copy</title>
    <desc>Created with Sketch.</desc>
    <g id="Page-1" stroke="none" stroke-width="1" fill="none" fill-rule="evenodd">
        <g id="Download" transform="translate(-1147.000000, -430.000000)" fill="#CED4D7" fill-rule="nonzero">
            <g id="Download-versions" transform="translate(151.000000, 393.000000)">
                <g id="Group-3-Copy-2" transform="translate(924.000000, 0.000000)">
                    <g id="Group-2" transform="translate(71.000000, 37.000000)">
                        <g id="linux" transform="translate(1.000000, 0.000000)">
                            <path d="M89.0598774,86.3206743 C85.9072031,85.0295019 84.5585747,83.316046 84.6889962,80.759433 C84.823295,77.775249 83.1302835,75.5894559 82.3262529,74.7258544 C82.8119847,72.8703448 84.2314636,66.4514943 82.3276628,60.8761533 C80.2818084,54.9084904 74.0356782,45.7941456 67.5907433,36.8348966 C64.9523525,33.1556015 64.8275709,29.1562452 64.6834023,24.5252261 C64.5452261,20.1081686 64.3894253,15.1013946 61.9262222,9.53557088 C59.248,3.47520307 53.873931,0 47.1811954,0 C43.1998161,0 39.1130421,1.24429119 35.9681226,3.41351724 C29.5281226,7.85806897 30.379387,17.5483831 30.9426667,23.9605364 C31.0198621,24.83859 31.0924751,25.668 31.1347739,26.3761533 C31.5098238,32.6561226 31.168613,35.9660077 30.7223602,36.9720153 C30.4336705,37.62941 29.0124291,39.5004291 27.5083525,41.4814253 C25.9528123,43.5300996 24.1893027,45.8523065 22.7437395,48.0162452 C21.0190038,50.620092 19.6266667,54.6000613 18.2801533,58.4489042 C17.2949425,61.2653027 16.3643678,63.9255479 15.4584674,65.5152797 C13.7414866,68.5734866 14.168705,71.4251341 14.5254253,72.7430958 C13.875433,73.194636 12.9363985,74.0836169 12.1436475,75.7593563 C11.1855785,77.8038008 9.24159387,78.9025134 5.19923372,79.6797548 C3.3416092,80.0597395 2.060659,80.8408582 1.3909272,82.0012567 C0.416291188,83.6900383 0.947141762,85.8120307 1.4314636,87.2621762 C2.14701916,89.3940383 1.70111877,90.7433716 0.890390805,93.1931801 C0.703570881,93.7585747 0.491724138,94.3986973 0.277057471,95.1047356 C-0.0609808429,96.2189579 0.0609808429,97.2320153 0.638712644,98.1157088 C2.16534866,100.449548 6.62012261,101.272613 11.206023,101.814038 C13.9441686,102.139034 16.9410421,103.234222 19.8395709,104.293808 C22.6795862,105.33154 25.6161839,106.404874 28.2855939,106.730575 C28.6913103,106.781686 29.0931494,106.807418 29.4805364,106.807418 C33.5109119,106.807418 35.3318774,104.133073 35.9092567,103.03436 C37.3569349,102.738973 42.3499617,101.792889 47.4959693,101.665992 C52.6338697,101.519356 57.6050421,102.533824 59.0132414,102.849303 C59.4559693,103.69669 60.6230651,105.632215 62.4835096,106.62941 C63.5060843,107.18846 64.9290881,107.508874 66.386636,107.508874 C66.3869885,107.508874 66.386636,107.508874 66.3869885,107.508874 C67.9435862,107.508874 70.9048582,107.140874 73.248567,104.675203 C75.5862835,102.1979 81.4270498,99.0353563 85.6921839,96.7261916 C86.643908,96.2108506 87.5342989,95.7286437 88.3150651,95.293318 C90.7109425,93.9651341 92.0183295,92.0673257 91.9016552,90.086682 C91.8043678,88.4416092 90.7155249,86.9985134 89.0598774,86.3206743 Z M36.0206437,85.8437548 C35.7224368,83.7429119 33.0198927,81.659341 29.8901303,79.2468966 C27.3310498,77.2740077 24.4304061,75.0381609 23.6313103,73.1445824 C21.9798927,69.2382835 23.2816398,62.3696552 25.5513257,58.8327663 C26.6729502,57.0618544 27.5890728,54.3762299 28.4752337,51.7790805 C29.4318927,48.9746667 30.4213333,46.0750805 31.5278008,44.8057625 C33.2800307,42.8240613 34.8993716,38.9681686 35.1862989,35.9293487 C36.8271418,37.4958161 39.3724751,39.4835096 41.7239387,39.4835096 C42.0859464,39.4835096 42.4373793,39.4362759 42.7733027,39.3414559 C44.382069,38.8768736 46.7483372,37.5095632 49.036705,36.1877241 C51.0095939,35.0477701 53.4424828,33.6420383 54.3579004,33.5140843 C55.9275402,35.767908 65.0482299,55.9518621 65.9802146,62.4338084 C66.7176245,67.5625441 65.9386207,71.8022989 65.5470038,73.4628812 C65.2318774,73.4198774 64.8561226,73.3849808 64.4613333,73.3849808 C61.9209349,73.3849808 61.2483831,74.7716782 61.0731954,75.5996782 C60.6227126,77.7509272 60.5751264,84.6297778 60.5701916,86.1754483 C59.6516015,87.3425441 55.0061303,92.8385747 48.336659,93.8266054 C45.6200153,94.2213946 43.0831418,94.4216092 40.7968889,94.4216092 C38.842682,94.4216092 37.5955709,94.2707433 37.0777625,94.1921379 L33.7262835,90.3573946 C35.0477701,89.7049349 36.3689042,88.3281073 36.0206437,85.8437548 Z M40.2734406,22.611908 C40.168751,22.6570268 40.0658238,22.705318 39.964659,22.7567816 C39.9544368,22.5297778 39.9308199,22.2996015 39.8945134,22.0687203 C39.5286284,19.96259 38.1320613,18.4338391 36.5744061,18.4338391 C36.4591418,18.4338391 36.3431724,18.4426513 36.2159234,18.4620383 C35.2892261,18.6164291 34.5623908,19.3125977 34.1640766,20.2995709 C34.5133946,18.1338697 35.7404138,16.5303908 37.1961992,16.5303908 C38.9057778,16.5303908 40.349931,18.8342682 40.349931,21.5611341 C40.349931,21.9048123 40.3249042,22.246728 40.2734406,22.611908 Z M53.5573946,24.2358314 C53.7139004,23.73741 53.7984981,23.1980996 53.7984981,22.6383448 C53.7984981,20.165977 52.2299157,18.2290421 50.2274176,18.2290421 C48.2703908,18.2290421 46.6781916,20.2068659 46.6781916,22.6383448 C46.6781916,22.8040153 46.6862989,22.9700383 46.7018084,23.1357088 C46.5981762,23.0958774 46.4970115,23.0571034 46.3983142,23.0197395 C46.1730728,22.3376705 46.0592184,21.6259923 46.0592184,20.8995096 C46.0592184,17.9431724 47.948567,15.5377778 50.2714789,15.5377778 C52.5940383,15.5377778 54.4837395,17.9431724 54.4837395,20.8995096 C54.4837395,22.1293487 54.1442912,23.3031418 53.5573946,24.2358314 Z M51.8446437,29.9898851 C51.8111571,30.139341 51.739954,30.2056092 50.9524904,30.6152031 C50.5548812,30.8221149 50.0599847,31.0797854 49.440659,31.4569502 L49.0268352,31.7075709 C47.3637854,32.7156935 43.4698238,35.0770268 42.412705,35.2155556 C41.694682,35.3121379 41.2505441,35.0336705 40.2519387,34.3551264 C40.0266973,34.2017931 39.7870038,34.0389425 39.5314483,33.8750345 C37.7312797,32.6938391 36.5733487,31.3927969 36.4425747,30.8841533 C37.0294713,30.4304981 38.4841992,29.2951264 39.2290115,28.6229272 C40.7408429,27.2171954 42.2621916,26.2725211 43.0151111,26.2725211 C43.0549425,26.2725211 43.0908966,26.275341 43.1282605,26.2823908 C44.0130115,26.4385441 46.1952797,27.3095479 47.7892414,27.9454406 C48.5259464,28.2394176 49.1621916,28.4932107 49.6098544,28.6539464 C51.0201686,29.1382682 51.7554636,29.7579464 51.8446437,29.9898851 Z M64.5156169,95.6835249 C65.3111877,92.0948199 66.2276628,87.2128276 66.0792644,84.3347433 C66.0450728,83.6808736 65.9872644,82.9691954 65.9312184,82.2811341 C65.8265287,80.9945441 65.6710805,79.0822835 65.8314636,78.5151264 C65.8631877,78.5003218 65.8984368,78.4876322 65.9375632,78.476705 C65.9442605,80.1221303 66.3016858,83.4041686 68.9263295,84.548705 C69.7085057,84.8899157 70.6024215,85.062636 71.5830498,85.062636 C74.2122759,85.062636 77.1294866,83.7728736 78.3244291,82.577931 C79.028,81.8743602 79.6198314,81.0135785 80.0343602,80.3318621 C80.1249502,80.5972874 80.1806437,80.9441379 80.151387,81.3910958 C79.9952337,83.8179923 81.1746667,87.0376398 83.4193257,88.2241226 L83.7460843,88.3957854 C84.5455326,88.815249 86.6689349,89.9301762 86.7031264,90.4589119 C86.7027739,90.4592644 86.6851494,90.5213027 86.5667126,90.6312797 C86.0348046,91.117364 84.162728,92.073318 82.3523372,92.9979004 C79.1407969,94.6376858 75.5006284,96.4963678 73.8657778,98.2158161 C71.5640153,100.63813 68.9605211,102.265226 67.3884138,102.265226 C67.1991264,102.265226 67.0267586,102.241257 66.8734253,102.192613 C65.1659617,101.660352 63.7605824,99.1967969 64.5156169,95.6835249 Z M6.31557088,86.5282912 C6.14144061,85.7133333 6.00396935,85.0700383 6.15166284,84.4468352 C6.25881992,83.9850728 8.53837548,83.4901762 9.51195402,83.2790345 C10.8806743,82.9818851 12.2962759,82.6748659 13.2219157,82.1129962 C14.4736092,81.3547893 15.1514483,79.9564598 15.749272,78.7227433 C16.1821303,77.83059 16.6290881,76.9081226 17.1609962,76.6053333 C17.1909579,76.5877088 17.2367816,76.5672644 17.3241992,76.5672644 C18.3206897,76.5672644 20.4116628,78.6621149 21.6164751,80.5370115 C21.9220843,81.0097011 22.4881839,81.9568429 23.1431111,83.0534406 C25.1019004,86.3308966 27.784,90.8198621 29.1847969,92.3242912 C30.4470651,93.6767969 32.4904521,96.2771188 31.9878008,98.5073257 C31.6198008,100.237701 29.660659,101.644843 29.1985441,101.956092 C29.0307586,101.994161 28.8231418,102.013548 28.5788659,102.013548 C25.8978238,102.013548 20.590728,99.7829885 17.739433,98.5845211 L17.3175019,98.4072184 C15.7253027,97.7396015 13.1260383,97.3190805 10.6124291,96.9123065 C8.61239847,96.5883678 5.87354789,96.1452874 5.41954023,95.7448582 C5.05154023,95.332092 5.47840613,93.9901609 5.8548659,92.8061456 C6.12593103,91.9552337 6.40580843,91.0754176 6.55914176,90.1543602 C6.77662835,88.6851801 6.52072031,87.4891801 6.31557088,86.5282912 Z" id="XMLID_92_-Copy"></path>
                        </g>
                    </g>
                </g>
            </g>
        </g>
    </g>
</svg>