<?xml version="1.0" encoding="UTF-8"?>
<svg width="1440px" height="416px" viewBox="0 0 1440 416" version="1.1" xmlns="http://www.w3.org/2000/svg" xmlns:xlink="http://www.w3.org/1999/xlink">
    <!-- Generator: Sketch 52.5 (67469) - http://www.bohemiancoding.com/sketch -->
    <title>particles</title>
    <desc>Created with Sketch.</desc>
    <defs>
        <linearGradient x1="-2.76702389%" y1="50.066142%" x2="100%" y2="50%" id="linearGradient-1">
            <stop stop-color="#BA68C8" offset="0%"></stop>
            <stop stop-color="#9C26B0" offset="49.1397218%"></stop>
            <stop stop-color="#7D1FA1" offset="100%"></stop>
        </linearGradient>
        <linearGradient x1="0%" y1="50%" x2="98.0311544%" y2="47.132364%" id="linearGradient-2">
            <stop stop-color="#4FC3F7" offset="0%"></stop>
            <stop stop-color="#03A9F4" offset="51.6686236%"></stop>
            <stop stop-color="#0888D5" offset="100%"></stop>
        </linearGradient>
    </defs>
    <g id="Page-1" stroke="none" stroke-width="1" fill="none" fill-rule="evenodd" opacity="0.302356">
        <g id="Home" transform="translate(0.000000, -2338.000000)" fill-rule="nonzero">
            <g id="Footer" transform="translate(0.000000, 2338.000000)">
                <g id="Group">
                    <g id="particles" transform="translate(727.500000, 213.500000) scale(1, -1) rotate(90.000000) translate(-727.500000, -213.500000) translate(444.500000, -656.500000)">
                        <circle id="dot" fill="#4FC3F7" cx="357" cy="333" r="22"></circle>
                        <circle id="dot" fill="#4FC3F7" cx="146" cy="1276" r="22"></circle>
                        <rect id="rect" fill-opacity="0.87" fill="url(#linearGradient-1)" transform="translate(146.035405, 164.897359) rotate(50.000000) translate(-146.035405, -164.897359) " x="-36.4645946" y="127.397359" width="365" height="75" rx="35.5"></rect>
                        <rect id="rect" fill="url(#linearGradient-2)" transform="translate(130.881211, 200.363175) rotate(60.000000) translate(-130.881211, -200.363175) " x="16.3812108" y="178.363175" width="229" height="44" rx="22"></rect>
                        <rect id="rect" fill="url(#linearGradient-2)" transform="translate(419.351162, 1608.388496) rotate(40.000000) translate(-419.351162, -1608.388496) " x="259.851162" y="1570.8885" width="319" height="75" rx="35.5"></rect>
                        <rect id="rect" fill-opacity="0.87" fill="url(#linearGradient-1)" transform="translate(454.652520, 1579.359235) rotate(30.000000) translate(-454.652520, -1579.359235) " x="349.65252" y="1541.85924" width="210" height="75" rx="35.5"></rect>
                        <circle id="dot" fill="#9C26B0" cx="138" cy="440" r="30"></circle>
                        <circle id="dot" fill="#9C26B0" cx="191.5" cy="1044.5" r="9.5"></circle>
                    </g>
                </g>
            </g>
        </g>
    </g>
</svg>